<svg id="Layer_1" data-name="Layer 1" xmlns="http://www.w3.org/2000/svg" viewBox="0 0 100 100"><defs><style>.cls-1{fill:#037665;}</style></defs><path class="cls-1" d="M52.58,52.22v.15a67.28,67.28,0,0,1,6.77-2.69q5.61-2.05,7.77-2.76A81.37,81.37,0,0,1,79.49,33.5Q89.21,25,95.33,25a5.09,5.09,0,0,1,3,.83,3,3,0,0,1,1.15,2.62q0,4.08-5.45,8.25A55.49,55.49,0,0,1,82.43,43Q78,44.92,72,46.77A97.69,97.69,0,0,0,66.21,57.6q-3.87,8.55-3.87,13.85a2,2,0,0,0,.79,1.65,2.56,2.56,0,0,0,1.65.65A22.87,22.87,0,0,0,76.69,70a53.64,53.64,0,0,0,5.16-3.45l2.58-2.15c.2,0,.29.14.29.43q-.72,1.44-6.89,5.31a37.51,37.51,0,0,1-7.42,3.91,19.73,19.73,0,0,1-6.35,1,4.19,4.19,0,0,1-3.44-1.51,8.47,8.47,0,0,1-1.44-5.38,30,30,0,0,1,2.3-11.33,41.88,41.88,0,0,1,4.59-8.18v-.15c-2.21.63-4.6,1.41-7.19,2.37A50.43,50.43,0,0,0,52,53.8,45.57,45.57,0,0,1,38.6,69.23a33.57,33.57,0,0,1-19.84,6.24q-8.06,0-13.16-3.8a11.88,11.88,0,0,1-5.1-10A15.56,15.56,0,0,1,6.24,49.1,20.84,20.84,0,0,1,20,44.33,14.38,14.38,0,0,1,28.69,47a9.28,9.28,0,0,1,4.09,7.82q0,5.37-5,9a17.12,17.12,0,0,1-10.4,3.38,19.1,19.1,0,0,1-5.09-.69c-1.68-.45-2.51-.84-2.51-1.18a.38.38,0,0,1,.43-.43c.62.24,1.33.48,2.15.72a16.61,16.61,0,0,0,4.73.71,16.87,16.87,0,0,0,9.69-2.86q4.8-3.24,4.8-8.47a7,7,0,0,0-3.19-5.85,13.73,13.73,0,0,0-8.28-2.33A19.21,19.21,0,0,0,7.67,51.15,14.47,14.47,0,0,0,1.93,62.84q0,4.95,4.67,8.36t12.12,3.41a26.16,26.16,0,0,0,16-5.67A39,39,0,0,0,45.84,55.67a33.56,33.56,0,0,0-5.74,3l-3.44,2.15c-.39,0-.58-.14-.58-.43s1.23-1.21,3.7-2.62,4.81-2.64,7.06-3.69Q51.79,46,53.59,43.4a50.79,50.79,0,0,1,9.32-10.69v-.14q-6,3.38-6.07,3.37A16.17,16.17,0,0,1,50,37.88c-3.28,0-4.92-1.73-4.92-5.17a23.91,23.91,0,0,1,.22-3.23c.14-1.1.21-1.69.21-1.79,0-1.05-.38-1.58-1.15-1.58a7.33,7.33,0,0,0-3.3,1.44,38.36,38.36,0,0,0-6.88,5.88,48.92,48.92,0,0,0-4.24,5c-.95,1.29-1.89,2.56-2.79,3.8a.38.38,0,0,1-.43-.43,8.49,8.49,0,0,1,1.29-2.08A64.64,64.64,0,0,1,34.47,32a36.31,36.31,0,0,1,5.85-5.06A10.76,10.76,0,0,1,46.13,25a3.5,3.5,0,0,1,3.08,1.44A5.46,5.46,0,0,1,50,29.55c0,.53,0,1.27-.14,2.23a24.53,24.53,0,0,0-.15,2.51,4.37,4.37,0,0,0,.29,2c.19.28.67.43,1.43.43q2.81,0,8.18-3.09,1.65-.93,5.46-3.37c.33-.24,1.84-1.41,4.51-3.51q2.81-2.24,4.09-2.23c.77,0,1.15.29,1.15.86s-1.55,1.44-4.66,2.87a17.5,17.5,0,0,0-5.09,3.45,31.72,31.72,0,0,0-4.17,5.88q-1.07,1.86-4.23,7.68A75.3,75.3,0,0,1,52.58,52.22ZM97.35,28.55c0-1.63-.86-2.44-2.58-2.44q-4.3,0-11.12,6.17A59.61,59.61,0,0,0,72.81,45.34,112.9,112.9,0,0,0,87.3,39.67Q97.35,34.44,97.35,28.55Z"/></svg>