<svg id="Layer_1" data-name="Layer 1" xmlns="http://www.w3.org/2000/svg" viewBox="0 0 100 100"><defs><style>.cls-1{fill:#262626;}.cls-2{fill:#56bf56;}</style></defs><rect class="cls-1" width="100" height="100"/><path class="cls-2" d="M57.05,87a42,42,0,0,1-6.54-.51A41.65,41.65,0,0,1,23.37,69.83h0l-.47-.68A41.6,41.6,0,0,1,57.05,3.79a41.8,41.8,0,0,1,12.63,2L73.94,7.1,69.77,8.7A26.62,26.62,0,0,0,79,60.16h.36a26.36,26.36,0,0,0,15.23-4.8l3.67-2.57L97,57.1a41.1,41.1,0,0,1-6.33,12.83,41.75,41.75,0,0,1-9.59,9.45h0a41.48,41.48,0,0,1-19.14,7.34A41.72,41.72,0,0,1,57.05,87Z"/><path class="cls-2" d="M88.49,34.79c-.14-4.1-2.85-8.67-9.06-8.46,6.12-.21,8.61-4.8,8.47-9a9,9,0,0,0,9,8.46C92,25.91,88.35,30.64,88.49,34.79Z"/><path class="cls-2" d="M95.1,96.21c.18-3.46-1.78-7.5-7-7.77,5.16.26,7.59-3.43,7.77-7a7.62,7.62,0,0,0,7,7.77A7.75,7.75,0,0,0,95.1,96.21Z"/><path class="cls-2" d="M9.27,73.37a5.42,5.42,0,0,0-5.4-6,5.41,5.41,0,0,0,6-5.4,5.85,5.85,0,0,0,5.4,6A6,6,0,0,0,9.27,73.37Z"/></svg>