<svg id="Layer_1" data-name="Layer 1" xmlns="http://www.w3.org/2000/svg" viewBox="0 0 100 100"><defs><style>.cls-1{fill:#fc4cb9;}</style></defs><path class="cls-1" d="M42.53,25.65a32.69,32.69,0,0,1,4.61-2A23,23,0,0,1,52,22.48a45.41,45.41,0,0,1,5.54-.31,36.49,36.49,0,0,1,3.74.18A24,24,0,0,1,65,23.1c1.32.38,2.74.85,4.23,1.43s3.19,1.33,5.11,2.25a59.58,59.58,0,0,1,6.22-1.87,21.91,21.91,0,0,1,4.73-.5,36.19,36.19,0,0,1,5.55.44,31.16,31.16,0,0,1,5,1.18,14.8,14.8,0,0,0,2.24.75c.91.24,1.37.62,1.37,1.12a.22.22,0,0,1-.25.25,2.84,2.84,0,0,1-.87-.13,49.74,49.74,0,0,0-6.23-1.68,31,31,0,0,0-6.22-.69,28.12,28.12,0,0,0-2.81.13,18.69,18.69,0,0,0-2.24.37,15.1,15.1,0,0,0-2.24.75A23.67,23.67,0,0,0,76,28.27a21.72,21.72,0,0,1,5.55,5.85A13.33,13.33,0,0,1,83.19,41a12,12,0,0,1-1.5,5.85,14.72,14.72,0,0,1-4.11,4.74,21.22,21.22,0,0,1-6.1,3.17A23,23,0,0,1,64,55.92c-.67,0-1.39,0-2.18-.07s-2-.14-3.55-.31Q57,58.41,56,60.52a26,26,0,0,1-2.12,3.74,23.65,23.65,0,0,1-2.43,3,39.61,39.61,0,0,1-3.05,2.86,27.36,27.36,0,0,1-3.23,2.37c-1.08.66-2.2,1.29-3.37,1.87a35.88,35.88,0,0,1-8.22,2.55,48.25,48.25,0,0,1-9.34.93,28.21,28.21,0,0,1-9.77-1.62A21.55,21.55,0,0,1,7,71.67a19.78,19.78,0,0,1-4.8-7A24.14,24.14,0,0,1,.5,55.42a27.19,27.19,0,0,1,2.24-10.9A30.3,30.3,0,0,1,17.5,29.14a23.77,23.77,0,0,1,10.4-2.36,23.52,23.52,0,0,1,4.35.37,38.71,38.71,0,0,1,5.48,1.62A39.23,39.23,0,0,1,42.53,25.65Zm9,23-2.37,2.62-1.74,4.47a19.66,19.66,0,0,1-3.18,5.32,23.82,23.82,0,0,1-4.73,4.34,22.85,22.85,0,0,1-5.85,2.91A20,20,0,0,1,27.4,69.4,20.38,20.38,0,0,1,19.74,68a18.55,18.55,0,0,1-6.1-3.9,17.85,17.85,0,0,1-4-5.89,19.26,19.26,0,0,1-1.43-7.51,9.59,9.59,0,0,1,.25-2.36,16.26,16.26,0,0,1,1-2.62c.41-.83.74-1.24,1-1.24.25.17.38.29.38.37a4.5,4.5,0,0,1-.5,1.25,13.41,13.41,0,0,0-1,5.85,14.44,14.44,0,0,0,1.43,6.32,16.48,16.48,0,0,0,3.93,5.2,20.06,20.06,0,0,0,5.79,3.6,18.19,18.19,0,0,0,7,1.36A20.69,20.69,0,0,0,40.35,63.7,23,23,0,0,0,43,61.35,19.15,19.15,0,0,0,45,58.93a14.21,14.21,0,0,0,1.49-3c.42-1.11.87-2.41,1.37-3.91a13.1,13.1,0,0,1-2,.63,8.39,8.39,0,0,1-1.44.12,10.52,10.52,0,0,1-8.15-3.48,12.81,12.81,0,0,1-3.18-9,15.21,15.21,0,0,1,3.36-9.47l.25-.49a.12.12,0,0,0,.13-.13.52.52,0,0,0-.25-.5,4.73,4.73,0,0,1-.62-.37,15.63,15.63,0,0,0-4.11-1.24C31.09,28.06,30.49,28,30,28s-1.14-.06-1.8-.06a23.73,23.73,0,0,0-10.09,2.24,28.49,28.49,0,0,0-8.53,6,30,30,0,0,0-5.92,8.65A24.54,24.54,0,0,0,1.37,55,23.45,23.45,0,0,0,2.93,63.7a19.23,19.23,0,0,0,4.36,6.75A19.52,19.52,0,0,0,14,74.79a23.45,23.45,0,0,0,8.66,1.55,25.06,25.06,0,0,0,11.7-2.91,31.68,31.68,0,0,0,10-8.24,35.08,35.08,0,0,0,2.12-2.85,21.94,21.94,0,0,0,1.74-3.1c.17-.41.56-1.34,1.19-2.78s1.51-3.41,2.67-5.9q1.62-3.48,3.12-6.23a41.1,41.1,0,0,1,3.11-4.91,35,35,0,0,1,3.49-4.05,39.27,39.27,0,0,1,4.36-3.74,22.84,22.84,0,0,1,3-2.11c.74-.42,1.82-1,3.23-1.62a21.89,21.89,0,0,0-7-3.43,32.89,32.89,0,0,0-8.84-1.06,38.83,38.83,0,0,0-5.11.31,24.83,24.83,0,0,0-4.29,1,23.38,23.38,0,0,0-4,1.81,34.39,34.39,0,0,0-4.24,2.86A57.09,57.09,0,0,1,44.21,34a16.64,16.64,0,0,1,3.11,4.17A15,15,0,0,1,48.82,43a66.25,66.25,0,0,1,.5,6.78,7.25,7.25,0,0,1,.68-1c.21-.25.39-.46.56-.63a6.11,6.11,0,0,0,1.12-1.37c.17-.33.37-.49.62-.49.33.16.5.29.5.37a.5.5,0,0,1-.12.37v.13ZM34.09,38.35a9.41,9.41,0,0,0-.38,1.9,9.1,9.1,0,0,0,1,4.9,13.47,13.47,0,0,0,3.13,4,11.92,11.92,0,0,0,3.65,2.34,7.21,7.21,0,0,0,4.28.35,3.42,3.42,0,0,0,2-1.23,4.17,4.17,0,0,0,.61-2.31,19.06,19.06,0,0,0-2.17-9.62,20.47,20.47,0,0,0-6.61-7.35,3.46,3.46,0,0,0-1.36-.63c-1-.14-1.5.68-1.88,1.46-.45,1-.75,2-1.11,2.94S34.42,37.23,34.09,38.35ZM61.15,53.67a16,16,0,0,0,6.22-1.24,17.75,17.75,0,0,0,5.23-3.3,16.58,16.58,0,0,0,3.61-4.73,12,12,0,0,0,1.37-5.55,16.92,16.92,0,0,0-.87-5.6A7.73,7.73,0,0,0,75,30c-.17-.33-.33-.49-.5-.49a1.16,1.16,0,0,1-.5-.13.71.71,0,0,0-.5.25,15.15,15.15,0,0,0-4.23,3.24,31.54,31.54,0,0,0-5.6,8.22c-.5,1-1,1.93-1.37,2.8a27.5,27.5,0,0,0-1.12,2.68c-.34.91-.67,1.93-1,3.05s-.71,2.47-1.12,4Z"/></svg>